<?xml version="1.0" encoding="UTF-8" standalone="no"?>
<svg width="16" height="16" viewBox="0 0 190.5 190.5" version="1.1" xmlns="http://www.w3.org/2000/svg">
  <rect fill="hsl(189, 100%, 25%)" width="190.5" height="190.5" />
  <g transform="translate(-25, -20)">
    <g transform="scale(1.2)">
      <g fill="white" transform="translate(-19.717007,-14.23651)">
        <g transform="matrix(0.41208283,-0.15126494,0.15126494,0.41208283,48.627473,76.512367)">
          <path
            d="M 258,2 242,50 97.06,181.76 89.83,170.62 78.15,163.04 210,18 Z m -156.971,236.26 11.314,-11.314 -31.176,-48.02 -48.02,-31.176 -11.314,11.314 31.386,31.386 -34.26,37.693 c -4.464,-0.586 -9.138,0.82 -12.568,4.249 -5.858,5.858 -5.858,15.355 0,21.213 5.858,5.858 15.355,5.858 21.213,0 3.428,-3.428 4.834,-8.1 4.25,-12.562 l 37.695,-34.262 z" />
        </g>
      </g>
    </g>
  </g>
</svg>
