<?xml version="1.0" encoding="UTF-8" standalone="no"?>
<svg viewBox="0 0 190.5 190.5" version="1.1" xmlns="http://www.w3.org/2000/svg">
  <g style="fill:white" transform="translate(-19.717007,-14.23651)">
    <path
      d="m 157.18113,200.4238 h 28.11198 c 3.65313,0 6.61458,-2.96145 6.61458,-6.61458 V 25.137345 c -0.0146,-3.642795 -2.97176,-6.588152 -6.61458,-6.588125 H 157.18113 150.56655 44.733225 c -3.653134,0 -6.614584,2.961449 -6.614584,6.614583 v 20.657344 h -9.095052 c -3.652358,0.0011 -6.612588,2.962228 -6.612588,6.614583 0,3.652355 2.96023,6.613483 6.612588,6.614583 h 9.095052 v 15.299534 h -9.095052 c -3.650554,0.004 -6.607973,2.96403 -6.607973,6.61458 0,3.65055 2.957419,6.61093 6.607973,6.61458 h 9.095052 v 15.292923 h -9.095052 c -3.653137,0 -6.614582,2.96145 -6.614582,6.61458 0,3.65314 2.961445,6.61459 6.614582,6.61459 h 9.095052 v 15.29953 h -9.095052 c -3.650554,0.004 -6.607973,2.96403 -6.607973,6.61458 0,3.65055 2.957419,6.61093 6.607973,6.61458 h 9.095052 v 15.29292 h -9.095052 c -3.653137,0 -6.614582,2.96145 -6.614582,6.61459 0,3.65313 2.961445,6.61458 6.614582,6.61458 h 9.095052 v 20.65734 c 2e-6,3.65313 2.961452,6.61458 6.614584,6.61458 H 150.56655 Z M 178.67853,31.778386 V 187.2211 H 153.87384 51.347808 v -14.04276 h 7.441406 c 3.653137,0 6.614582,-2.96145 6.614582,-6.61459 0,-3.65313 -2.961445,-6.61458 -6.614582,-6.61458 h -7.441406 v -15.29292 h 7.441406 c 3.650554,-0.004 6.607973,-2.96403 6.607973,-6.61458 0,-3.65055 -2.957419,-6.61093 -6.607973,-6.61458 H 51.347808 V 116.1011 h 7.441406 c 3.653137,0 6.614582,-2.96145 6.614582,-6.61459 0,-3.65313 -2.961445,-6.61458 -6.614582,-6.61458 H 51.347808 V 87.579007 h 7.441406 c 3.650554,-0.004 6.607973,-2.96403 6.607973,-6.61458 0,-3.65055 -2.957419,-6.61093 -6.607973,-6.61458 H 51.347808 V 59.050313 h 7.441406 c 3.653914,0.0011 6.616573,-2.960672 6.616573,-6.614583 0,-3.653911 -2.962659,-6.615683 -6.616573,-6.614583 H 51.347808 V 31.778386 H 153.87384 Z" />
    <g transform="matrix(0.41208283,-0.15126494,0.15126494,0.41208283,48.627473,76.512367)">
      <path
        d="M 258,2 242,50 97.06,181.76 89.83,170.62 78.15,163.04 210,18 Z m -156.971,236.26 11.314,-11.314 -31.176,-48.02 -48.02,-31.176 -11.314,11.314 31.386,31.386 -34.26,37.693 c -4.464,-0.586 -9.138,0.82 -12.568,4.249 -5.858,5.858 -5.858,15.355 0,21.213 5.858,5.858 15.355,5.858 21.213,0 3.428,-3.428 4.834,-8.1 4.25,-12.562 l 37.695,-34.262 z" />
    </g>
  </g>
</svg>
